<?xml version="1.0" encoding="utf-8"?>

<!DOCTYPE svg PUBLIC "-//W3C//DTD SVG 1.1//EN" "http://www.w3.org/Graphics/SVG/1.1/DTD/svg11.dtd">
<svg version="1.1" id="Layer_1" xmlns="http://www.w3.org/2000/svg" xmlns:xlink="http://www.w3.org/1999/xlink" x="0px" y="0px"
	 viewBox="0 0 1484 1920" enable-background="new 0 0 1484 1920" xml:space="preserve">
<g>
	<path fill="#FFFFFF" d="M0,0h1484v1920H0V0 M82.13,80.28c-0.34,4.56-0.08,9.15-0.16,13.73c0.03,585.97-0.04,1171.95,0.04,1757.9299
		c316.35,0.17,632.7-0.0399,949.0599,0.1101c0.9801-0.9701,1.9701-1.92,2.9501-2.87c13.46-12.92,26.4399-26.3501,39.71-39.4801
		C1181.45,1701.92,1289.21,1594.17,1396.84,1486.3c0.91-0.9,1.3-1.99,1.17-3.27c-0.02-467.38-0.05-934.77,0.01-1402.16
		c-0.9501-0.48-1.9401-0.71-2.97-0.69C957.41,80.28,519.77,80.09,82.13,80.28z"/>
	<path fill="#BABABA" d="M82.13,80.28c437.64-0.19,875.28,0,1312.92-0.1c1.0299-0.02,2.0199,0.21,2.97,0.69
		c-0.0601,467.39-0.03,934.78-0.01,1402.16c0.13,1.28-0.26,2.37-1.17,3.27c-0.14-0.4701-0.4199-1.4-0.5599-1.87
		c-0.1801-218.79-0.03-437.6001-0.0801-656.3901c0-248.68,0-497.35,0-746.02c-344.4199-0.07-688.83-0.01-1033.25-0.03
		c-93.2,0.05-186.41-0.1-279.61,0.07c0.17,412.66,0.02,825.32,0.07,1237.98c-0.02,176.8099,0.03,353.62-0.02,530.4299
		c315.68-0.0499,631.37-0.0599,947.0599,0c12.67-50,24.9401-100.12,37.65-150.12l1.04,0.92c-0.8,6.59-3.14,12.9-4.52,19.39
		c-10.35,41.33-20.61,82.6799-31.02,123.99c-0.52,1.51,0.01,3.0399,0.42,4.53c-0.98,0.95-1.97,1.8999-2.9501,2.87
		c-316.3599-0.15-632.71,0.0599-949.0599-0.1101C81.93,1265.96,82,679.98,81.97,94.01C82.05,89.43,81.79,84.84,82.13,80.28z"/>
	<path fill="#FFFFFF" d="M83.34,82.06c93.2-0.17,186.41-0.02,279.61-0.07c344.42,0.02,688.83-0.04,1033.25,0.03
		c0,248.67,0,497.34,0,746.02c0.05,218.79-0.1,437.6,0.0801,656.3901c-9.85,2.25-19.66,4.6599-29.41,7.3199
		c-7.1899,1.8199-14.4,3.63-21.61,5.39c-1.84,0.4-3.65,0.87-5.45,1.36c-20.8101,5.36-41.65,10.6-62.5,15.8
		c-1.8701,0.4099-3.7101,0.86-5.54,1.35c-54.14,13.5499-108.27,27.16-162.4401,40.6c-2.01,0.76-5.2899,0.37-5.8999,2.98
		c-1.77,6.5-3.2101,13.1-4.9501,19.62c-0.51,1.8201-1.01,3.64-1.4299,5.5c-2.12,8.84-4.3101,17.67-6.5801,26.48
		c-2.9399,11.0801-5.72,22.2101-8.3099,33.37c-2.64,10.2001-4.99,20.4701-7.74,30.65c-2.2201,8.47-4.3201,16.97-6.3201,25.5
		c-12.71,50-24.98,100.12-37.65,150.12c-315.6899-0.0599-631.3799-0.0499-947.0599,0c0.05-176.8099,0-353.62,0.02-530.4299
		C83.36,907.38,83.51,494.72,83.34,82.06 M693.35,166.17c-0.2599,11.58-1.39,23.29-4.52,34.47c-8.63,2.92-17.9,2.35-26.86,3.27
		c-3.9399-0.03-7.89,0.14-11.8199-0.01c-0.81-10.95,4.86-21.52,3.21-32.48c-0.2-3.44-3.86-4.48-6.63-5.12
		c-2.79,0.61-5.92,2.53-5.88,5.74c-2.55,22.96-4.92,46-9.72,68.63c0.66,3.44,2.66,7.61,6.74,7.59c3.92-0.24,5.89-4.31,6.73-7.65
		c1.71-8.45,0.81-17.3,3.32-25.61c10.03-1.33,20.14-1.52,30.22-2.17c3.27-0.33,6.56-0.5,9.86-0.31c0.36,9.92-2.58,19.58-3.15,29.42
		c0.08,3.47,3.47,5.23,6.41,6.02c3.69-0.54,7.75-2.77,7.8-7c0.03-11.38,1.1-22.71,1.99-34.05c1.22-13.44,4.95-26.52,6.07-39.97
		c0.68-3.21-2.34-5.52-5.15-6.07C698.27,159.64,694.26,162.61,693.35,166.17 M565.15,190.1c-7.88,9.93-13.4,22.09-14.13,34.86
		c-0.04,7.35,1.72,15.59,7.9,20.29c7.14,5.38,16.84,5.44,25.17,3.24c15.8-4.37,29.71-13.77,41.92-24.47
		c3.77-3.66,8.39-7.49,9.05-13.05c-0.17-2.01-2.07-2.9-3.55-3.83c-9.35,10.08-20.72,18.16-32.78,24.67
		c-7.95,4.04-16.55,7.93-25.68,7.31c-4.29,0.14-8.29-3.08-9.21-7.24c-1.56-6.63,0.11-13.51,2.2599-19.81
		c3.9901-11.97,12.76-21.98,23.21-28.81c5.37-2.94,11.26-6.54,17.64-5.3c-2.19,3.77-6.93,6.33-7.15,11.01
		c0.38,5.47,7.95,6.81,11.39,3.24c2.91-3.27,5.1-7.14,6.97-11.08c2.04-3.36-1.03-6.83-2.84-9.56c-3.06-4.58-9.28-5.09-14.24-4.24
		C586.89,170.43,574.57,179.28,565.15,190.1 M767.52,171.3c-8.17,0.59-16.43,1.01-24.58,0.11l0.11-0.2
		c-1.77-0.33-3.54-0.68-5.27-1.14c-4.67,1.06-10.04,3.49-10.73,8.84c0.06,8.09-0.66,16.15-1.18,24.23
		c-1.45,11.14-4.85,21.94-6.27,33.09c0,3.39,0.13,7.79,3.53,9.61c4.67,2.11,9.48-0.72,14.14-1.47c14.22-2.16,28.57-3.34,42.8-5.42
		c3.52-0.28,7.14-2.24,8.42-5.69c0.27-4.1-4.25-7.77-8.17-5.85c-6.11,2.51-12.79,2.3-19.2,3.35c-9.2,0.74-18.39,1.79-27.61,2.21
		c0.5-6.73,2.47-13.32,3.42-20.02l0.38-0.4c10.64-1.42,21.45-1.04,32.11-2.35c4.23-0.48,10.07-1.14,11.3-6.09
		c-0.6299-2.26-0.64-5.65-3.46-6.32c-3.51-1.08-6.84,1.16-10.16,1.92c-9.38,1.08-18.81,1.68-28.25,1.39
		c0.35-6.03,0.34-12.1,1.02-18.11c16.38,0.37,32.95-0.29,48.9-4.28c3.17-0.63,4.25-3.92,5.38-6.52c-1.05-2.92-3.81-5.78-7.17-5.14
		C780.4,168.05,774.21,170.78,767.52,171.3 M831.68,173.79c-11.61,7-21.81,16.88-27.59,29.28c-4.19,8.97-7.21,19.14-5.27,29.08
		c0.89,6.65,5.09,12.98,11.41,15.57c9.31,3.97,19.77,1.81,28.82-1.82c13.24-5.33,25.11-13.66,35.6-23.25
		c3.46-3.52,7.85-7.43,7.48-12.84c-1.05-1.01-2.2-1.92-3.38-2.73c-9.42,10.09-20.78,18.25-32.92,24.75c-8,4.09-16.7,7.97-25.9,7.28
		c-4.93,0.07-9.05-4.32-9.31-9.13c-0.96-9.82,2.52-19.54,7.3-27.97c7.04-10.93,17.43-20.23,30.09-23.97c2-0.58,4.1-0.3,6.15-0.12
		c-2.19,3.8-7.06,6.38-7.2,11.1c0.47,5.7,8.55,6.77,11.8,2.77c3.03-3.86,5.75-8.12,7.31-12.79c-1.12-5.36-5.11-11.19-11-11.74
		C846.75,166.06,838.88,170.15,831.68,173.79 M885.34,170.33c-1.52,2.39-0.64,5.02-0.46,7.6c-0.26,6.42-1.13,12.86-0.67,19.28
		c-0.09,0.94-0.27,2.8-0.36,3.73c-0.15,8.69-1.23,17.38-0.73,26.07c-0.74,1.78-0.78,4.23,0.05,5.99
		c-0.86,5.78,2.17,11.85,7.11,14.93c2.71,0.13,5.48-1.41,7.5-3.19c2-2.12,0.25-4.85-0.55-7.06c-2.69-5.29-1.62-11.41-1.12-17.07
		c5.72,0.67,11.39,2.09,16.59,4.59c7.99,3.98,16.24,7.45,24.73,10.21c3.98,1.21,8.53,2.58,12.46,0.44c2.42-1.05,3.47-3.58,4.18-5.94
		c-0.55-1.94-1.21-3.85-2.12-5.64c-3.95,0.68-8.01,1.33-12.01,0.77c-11.15-3.38-21.52-8.9-32.62-12.39
		c10.87-6.88,21.14-15.24,28.27-26.1c1.36-2.9,5.69-2.19,6.96-5.17c0.9-2.13,2.02-4.19,2.71-6.4c-0.78-2.9-3.27-5.49-6.11-6.43
		c-2.67,0.41-4.46,2.56-6.25,4.34c-5.84,6.2-11.4301,12.62-16.92,19.13c-5.73,6.62-12.84,11.89-20.47,16.1
		c0.54-12.03,0.07-24.22,2.31-36.08C895.81,167.3,888.42,165.82,885.34,170.33 M1042.01,173.97c-2.97,16.96-6.6901,33.8-8.92,50.88
		c-0.2799,5.64-1.62,11.75,0.9401,17.04c2.86,5.39,10.72,2.54,13.2-1.75c1.5-2.4-1.01-4.7-0.8199-7.15
		c0.8099-10.71,2.5299-21.32,3.76-31.98c0.84-5,0.97-10.2,3.0499-14.91c2.01-4.62,3.4501-10.28,0.5801-14.87
		c-1.1901-2.33-3.7201-3.3-6.0701-3.96C1044.77,168.25,1042.5,170.89,1042.01,173.97 M973.96,173.06
		c-1.41,4.14-0.88,8.58-1.56,12.84c-2.19,16.41-4.9901,32.74-8.07,49.01c-0.38,3.7-1.81,7.85,0.39,11.27
		c2.58,3.53,7.51,3.44,11.38,2.67c11.59-2.47,22.87-7.5,34.92-6.89c3.87-0.01,8.33,0.46,11.49-2.26c2.4399-1.86,3.58-5.99,1-8.22
		c-3.27-1.64-7.12-1.65-10.66-1.06c-6.16,0.44-12.21,1.74-18.22,3.1c-5.86,1.43-11.54,3.68-17.57,4.29
		c-0.51-4.28,0.42-8.52,1.18-12.71c3.02-15.71,6.07-31.43,9.03-47.16c0.56-2.13,0.04-4.36-0.76-6.35
		C983.88,166.92,975.33,167.75,973.96,173.06 M1079.96,173.97c-5.85,2.65-11.71,6.21-15.21,11.76c-3.46,5.65-1.23,12.94,2.53,17.85
		c5.1799,6.23,12.96,9.32,20.49,11.69c6.51,2.42,14,3.05,19.39,7.83c-0.2201,3.37-3.0901,5.58-5.66,7.32
		c-8.74,5.67-19.4399,9.09-29.88,7.2c-2.52-0.48-4.9301-1.71-7.51-1.6c-2.76,2.11-5.6899,7.36-1.91,9.85
		c4.9301,3.11,11.12,4.67,16.91,3.63c9.58-1.17,19.13-3.93,27.28-9.22c5.03-3.07,9.87-7.02,12.29-12.54
		c2.5699-5.18-0.37-11.48-4.9-14.51c-9.2001-6.52-20.89-7.36-30.9601-11.97c-3.2899-1.88-6.4099-4.64-7.5199-8.38
		c-0.3101-2.53,1.85-4.47,3.61-5.95c7.4199-5.46,17.01-7.14,26.0599-6.58c2.5701,0.29,5.75,0.99,6.87,3.67
		c0.3401,1.99,0.24,4.03,0.29,6.05c2.58-0.42,5.71-0.13,7.74-2.06c1.5699-2.34,2.26-5.24,2.42-8.02c-0.36-3.84-3.5801-6.8-6.88-8.39
		C1103.9,167.32,1091.02,169.19,1079.96,173.97 M1179.27,172.39c-11,2.5-22.22,3.82-33.4,5.17c-5.77,0.38-11.67,0.26-17.23,2.03
		c-4.14,1.31-4.14,8.63,0.52,9.18c9.86,1.64,19.8099-1.27,29.6799-1.86c-1.64,14.03-3.85,28.03-4.39,42.15
		c0.55,4.45,0.0801,9.21,2.15,13.33c1.17,2.41,3.66,3.63,6.0601,4.52c1.5399-0.73,3.45-1.23,4.2899-2.91
		c2.6801-4.3,0.2201-9.39,0.3-14.03c-0.2-13.7,2.24-27.25,3.52-40.85c0.33-1.55-0.17-3.78,1.5499-4.64
		c3.77-1.38,7.76-2.19,11.77-2.6l0.16-0.33c6.24-0.42,12.5-0.08,18.76-0.09c2,0.17,3.8199-1.04,4.63-2.86
		c0.97-2.66-0.74-5.71-3-7.11C1196.35,168.88,1187.58,170.8,1179.27,172.39 M325.76,315.77c-7.22,4.46-14.2,9.31-20.91,14.51
		c-2.47-2.1-5.41-3.83-8.63-4.4c-5.15-1.94-10.76-2.13-16.21-2.01c-32-0.01-64,0.01-96-0.01c-3.18,0.36-6.45,0.35-9.51,1.36
		c-7.83,1.56-14.51,6.95-19.25,13.21c-5.39,6.93-7.49,15.93-7.14,24.58c-0.02,32.67,0.03,65.34-0.02,98.01
		c0.62,6.58,2.04,13.4,6.05,18.84c5.64,8.61,15.07,14.95,25.42,15.94c31.8,0.26,63.61,0.04,95.42,0.12
		c6.48-0.13,13.09,0.55,19.42-1.19c9.26-2.37,17.14-9.19,21.81-17.43c1.69-3.61,3.85-7.51,3.57-11.55c0.94-2.13,0.49-4.49,0.57-6.74
		c-0.01-32.66,0-65.32,0-97.98c-0.09-2.29,0.39-4.71-0.58-6.86c0.12-5.25-2.61-10.43-5.57-14.7c6.21-5.71,12.89-10.88,19.75-15.79
		c0.59-3.33-1.48-6.02-3.22-8.61C329.07,315.2,327.19,314.67,325.76,315.77 M436.58,480.58c0.06,3.52,0.07,7.05-0.01,10.57
		c261.21-0.03,522.41-0.04,783.6199,0.01c-0.0499-3.53-0.0499-7.06-0.0099-10.58C958.98,480.66,697.78,480.65,436.58,480.58
		 M167.03,530.21c-9.36,5.48-16.83,14.93-18.24,25.87c-1.32,6.21-0.42,12.61-0.68,18.91c0,29.68,0,59.36,0,89.04
		c0.75,6.29,2.11,12.79,5.96,18c4.24,6.16,10.18,11.83,17.5,13.93c4.46,2.12,9.53,2.41,14.4,2.27c32.32-0.01,64.65-0.01,96.97,0
		c2.29-0.05,4.65,0.28,6.87-0.49c10.48-0.61,19.78-7.88,25.41-16.46c2.24-4.1201,4.8-8.67,4.57-13.44
		c1.18-3.83,0.28-7.94,0.56-11.89c0-31-0.01-62,0.01-93c-0.08-2.26,0.32-4.63-0.58-6.76c0.08-4.94-2.58-9.72-5.06-13.91
		c-6.46-9.4301-17.13-15.91-28.67-16.27c-34-0.03-68.01,0.02-102.01-0.03C178.17,526.3,172.25,527.38,167.03,530.21 M436.57,682.89
		c0.07,3.52,0.07,7.05,0.01,10.58c261.2-0.06,522.4-0.08,783.6001,0.02c-0.04-3.54-0.04-7.07,0.0099-10.6
		C958.99,682.93,697.78,682.92,436.57,682.89 M168.03,731.97c-8.48,4.6801-15.64,12.39-18.3,21.85c-2.23,7.2-1.53,14.78-1.62,22.21
		c0.01,30-0.01,60,0.01,90.0099c0.3,1.97,0.73,3.92,0.84,5.93c2.42,12.71,12.48,23.51,24.81,27.25c6.92,2.01,14.15,1.29,21.26,1.41
		c30.68-0.01,61.36,0,92.04,0c8.06-0.7,16.12-3.83,21.88-9.64c5.7-5.3,10.33-12.62,10.85-20.46c0.88-2.44,0.49-5.04,0.55-7.55
		c0-32.33,0-64.65,0-96.97c-0.07-2.54,0.33-5.16-0.54-7.6c0.23-3.3199-1.41-6.53-2.82-9.47c1.34-1.03,2.69-2.05,4.06-3.04
		c0.56-3.35-1.33-6.1801-3.31-8.65c-2.69-0.29-5.18,0.55-7.28,2.22c-4.13-4.49-9.44-7.9399-15.34-9.5699
		c-7.16-2.29-14.71-1.57-22.09-1.66c-30.01,0-60.03,0-90.03,0C177.88,728.86,172.68,729.58,168.03,731.97 M436.55,885
		c0,3.66-0.03,7.32,0.06,10.98c25.13-0.29,50.27-0.04,75.41-0.13c123.65,0,247.29,0,370.93,0c112.41,0.08,224.82-0.14,337.23,0.11
		c0.0099-3.66,0-7.31,0.0199-10.96C958.98,885,697.77,885,436.55,885 M161.55,938.65c-8.87,6.92-13.74,18.15-13.46,29.31
		c0.05,31.36,0.01,62.72,0.02,94.08c-0.25,6.9099,0.62,13.97,3.46,20.34c4.84,9.6,13.79,17.41,24.44,19.63
		c7.87,1.72,15.98,0.65,23.97,0.95c29.02,0,58.04-0.01,87.05,0c8.13-0.83,16.27-3.9399,22.09-9.83c5.62-5.3,10.23-12.64,10.68-20.42
		c0.85-2.1499,0.5-4.48,0.56-6.7c-0.02-32.6801-0.01-65.35-0.01-98.03c-0.07-2.29,0.33-4.68-0.53-6.85
		c0.32-1.17,0.44-2.73-0.87-3.32c0.71-0.55,1.42-1.1,2.12-1.65c0.54-3.24-1.36-5.9-3.05-8.43c-0.71-0.02-2.11-0.04-2.82-0.06
		c-4.74-7.23-11.79-13.29-20.27-15.54c-1.98-0.49-4.01-1.57-6.09-0.93c-2.17-0.9-4.54-0.47-6.81-0.54c-32,0.01-63.99,0.01-95.99,0
		c-2.29,0.08-4.69-0.3799-6.86,0.56C172.7,931.18,166.49,934.59,161.55,938.65 M436.69,1087.1899
		c-0.28,3.5901-0.07,7.2101-0.18,10.8201c261.24-0.02,522.47-0.01,783.7-0.01c-0.0499-3.6,0.01-7.1899-0.0699-10.77
		c-148.04,0.22-296.08,0.03-444.13,0.09C662.9,1087.23,549.79,1087.5,436.69,1087.1899 M174.43,1134.3101
		c-9.16,1.87-16.6,8.84-21.51,16.5599c-5.12,8.4401-5.04,18.6-4.81,28.15c0,30.34,0.01,60.6899,0,91.04
		c0.68,6.09,1.67,12.4199,5.18,17.6299c4.31,6.9,10.77,12.7201,18.55,15.3501c5.2,1.77,10.77,2.09,16.23,2.02
		c32.32-0.03,64.63,0,96.95-0.01c3.79-0.0901,7.59-0.6001,11.18-1.8501c8.37-2.5299,15.26-8.87,19.71-16.26
		c1.85-3.7699,4.14-7.87,3.86-12.12c1.24-4.48,0.27-9.25,0.58-13.84c0-30.3199-0.01-60.63,0-90.9399
		c-0.09-2.28,0.37-4.6901-0.56-6.8301c0.34-3.3999-1.37-6.74-2.82-9.73c1.28-1,2.6-1.9399,3.96-2.8199
		c0.81-3.3401-1.16-6.13-2.95-8.7001c-2.78-0.37-5.39,0.3101-7.56,2.0901c-3.85-4.12-8.67-7.76-14.21-9.13
		c-3.89-1.4801-8.06-1.76-12.17-1.9701c-29-0.0199-57.99,0-86.99,0C189.51,1133.17,181.78,1132.16,174.43,1134.3101 M436.57,1289.7
		c0.08,3.51,0.08,7.03,0,10.5601c261.21-0.04,522.41-0.05,783.61,0.01c-0.04-3.54-0.04-7.0601,0-10.5801
		C958.98,1289.77,697.78,1289.75,436.57,1289.7 M178.09,1335.66c-9.22,1.22-17.47,6.84-22.9,14.25c-5.66,6.99-7.4,16.35-7.07,25.13
		c-0.01,29.98-0.01,59.97-0.01,89.96c0.14,3.48-0.41,7.04,0.47,10.48c0.77,11.85,8.71,22.48,19.01,28.02
		c3.58,1.72,7.53,3.58,11.56,3.26c2.16,0.9299,4.56,0.47,6.83,0.5699c28.32-0.01,56.64,0,84.96,0
		c6.28-0.2899,12.69,0.5901,18.89-0.49c5.06,0.02,9.92-2.5499,14.24-5.0499c8.18-5.7001,15.2-14.73,15.76-24.91
		c1.1-4.1801,0.26-8.59,0.52-12.86c0-30.67-0.01-61.34,0.01-92.01c-0.06-2.25,0.29-4.6-0.56-6.73c0.18-4.25-2.16-8.26-3.92-12.03
		c-4.57-7.41-11.49-13.6899-19.92-16.27c-7.39-2.62-15.31-1.85-22.99-1.9399c-27.67,0-55.34,0-83,0
		C186.01,1335.13,181.98,1334.64,178.09,1335.66 M436.51,1491.97c0.14,3.5901-0.14,7.2001,0.2,10.8
		c33.77-0.3101,67.56-0.05,101.33-0.13c116.32,0,232.63,0,348.94,0c111.05,0.0599,222.1-0.13,333.15,0.09
		c0.11-3.6,0.02-7.1899,0.09-10.77C958.98,1492.01,697.75,1491.99,436.51,1491.97z"/>
	<path fill="#002060" d="M693.35,166.17c0.91-3.56,4.92-6.53,8.62-5.3c2.8101,0.55,5.83,2.86,5.15,6.07
		c-1.12,13.45-4.85,26.53-6.07,39.97c-0.89,11.34-1.96,22.67-1.99,34.05c-0.05,4.23-4.11,6.46-7.8,7c-2.94-0.79-6.33-2.55-6.41-6.02
		c0.57-9.84,3.51-19.5,3.15-29.42c-3.3-0.19-6.59-0.02-9.86,0.31c-10.08,0.65-20.19,0.84-30.22,2.17
		c-2.51,8.31-1.61,17.16-3.32,25.61c-0.84,3.34-2.81,7.41-6.73,7.65c-4.08,0.02-6.08-4.15-6.74-7.59
		c4.8-22.63,7.17-45.67,9.72-68.63c-0.04-3.21,3.09-5.13,5.88-5.74c2.77,0.64,6.43,1.68,6.63,5.12c1.65,10.96-4.02,21.53-3.21,32.48
		l0.13,0.87c8.27,0.38,16.64,0.6,24.8799-0.38c-4.3799-0.49-8.79-0.3-13.19-0.48c8.96-0.92,18.23-0.35,26.86-3.27
		C691.96,189.46,693.09,177.75,693.35,166.17z"/>
	<path fill="#002060" d="M565.15,190.1c9.42-10.82,21.74-19.67,35.93-22.77c4.96-0.85,11.18-0.34,14.24,4.24
		c1.81,2.73,4.88,6.2,2.84,9.56c-1.87,3.94-4.06,7.81-6.97,11.08c-3.44,3.57-11.01,2.23-11.39-3.24c0.22-4.68,4.96-7.24,7.15-11.01
		c-6.38-1.24-12.27,2.36-17.64,5.3c-10.45,6.83-19.22,16.84-23.21,28.81c-2.15,6.3-3.8199,13.18-2.2599,19.81
		c0.92,4.16,4.92,7.38,9.21,7.24c9.13,0.62,17.73-3.27,25.68-7.31c12.06-6.51,23.43-14.59,32.78-24.67
		c1.48,0.93,3.38,1.82,3.55,3.83c-0.66,5.56-5.28,9.39-9.05,13.05c-12.21,10.7-26.12,20.1-41.92,24.47
		c-8.33,2.2-18.03,2.14-25.17-3.24c-6.18-4.7-7.94-12.94-7.9-20.29C551.75,212.19,557.27,200.03,565.15,190.1z"/>
	<path fill="#002060" d="M767.52,171.3c6.69-0.52,12.88-3.25,19.46-4.25c3.36-0.64,6.12,2.22,7.17,5.14
		c-1.13,2.6-2.21,5.89-5.38,6.52c-15.95,3.99-32.52,4.65-48.9,4.28c-0.68,6.01-0.67,12.08-1.02,18.11
		c9.44,0.29,18.87-0.31,28.25-1.39c3.32-0.76,6.65-3,10.16-1.92c2.82,0.67,2.83,4.06,3.46,6.32c-1.23,4.95-7.0699,5.61-11.3,6.09
		c-10.66,1.31-21.47,0.93-32.11,2.35l-0.38,0.4c-0.95,6.7-2.92,13.29-3.42,20.02c9.22-0.42,18.41-1.47,27.61-2.21
		c6.41-1.05,13.09-0.84,19.2-3.35c3.92-1.92,8.44,1.75,8.17,5.85c-1.28,3.45-4.9,5.41-8.42,5.69c-14.23,2.08-28.58,3.26-42.8,5.42
		c-4.66,0.75-9.47,3.58-14.14,1.47c-3.4-1.82-3.53-6.22-3.53-9.61c1.42-11.15,4.82-21.95,6.27-33.09
		c0.52-8.08,1.24-16.14,1.18-24.23c0.69-5.35,6.06-7.78,10.73-8.84c1.73,0.46,3.5,0.81,5.27,1.14l-0.11,0.2
		c-0.22,0.35-0.65,1.06-0.86,1.42c8.2,0.08,16.51,0.67,24.66-0.33C766.93,172.2,767.33,171.6,767.52,171.3z"/>
	<path fill="#002060" d="M831.68,173.79c7.2-3.64,15.07-7.73,23.39-6.53c5.89,0.55,9.88,6.38,11,11.74
		c-1.56,4.67-4.28,8.93-7.31,12.79c-3.25,4-11.33,2.93-11.8-2.77c0.14-4.72,5.0099-7.3,7.2-11.1c-2.05-0.18-4.15-0.46-6.15,0.12
		c-12.66,3.74-23.05,13.04-30.09,23.97c-4.78,8.43-8.26,18.15-7.3,27.97c0.26,4.81,4.38,9.2,9.31,9.13c9.2,0.69,17.9-3.19,25.9-7.28
		c12.14-6.5,23.5-14.66,32.92-24.75c1.18,0.81,2.33,1.72,3.38,2.73c0.37,5.41-4.02,9.32-7.48,12.84
		c-10.4901,9.59-22.36,17.92-35.6,23.25c-9.05,3.63-19.51,5.79-28.82,1.82c-6.32-2.59-10.52-8.92-11.41-15.57
		c-1.94-9.94,1.08-20.11,5.27-29.08C809.87,190.67,820.07,180.79,831.68,173.79z"/>
	<path fill="#002060" d="M885.34,170.33c3.08-4.51,10.47-3.03,12.48,1.71c-2.24,11.86-1.77,24.05-2.31,36.08
		c7.63-4.21,14.74-9.48,20.47-16.1c5.49-6.51,11.08-12.93,16.92-19.13c1.79-1.78,3.58-3.93,6.25-4.34c2.84,0.94,5.33,3.53,6.11,6.43
		c-0.69,2.21-1.81,4.27-2.71,6.4c-1.27,2.98-5.6,2.27-6.96,5.17c-7.13,10.86-17.4,19.22-28.27,26.1
		c11.1,3.49,21.47,9.01,32.62,12.39c4,0.56,8.06-0.09,12.01-0.77c0.91,1.79,1.57,3.7,2.12,5.64c-0.71,2.36-1.76,4.89-4.18,5.94
		c-3.93,2.14-8.48,0.77-12.46-0.44c-8.49-2.76-16.74-6.23-24.73-10.21c-5.2-2.5-10.87-3.92-16.59-4.59
		c-0.5,5.66-1.57,11.78,1.12,17.07c0.8,2.21,2.55,4.94,0.55,7.06c-2.02,1.78-4.79,3.32-7.5,3.19c-4.94-3.08-7.97-9.15-7.11-14.93
		c1.21-1.88,1.2-4.14-0.05-5.99c-0.5-8.69,0.58-17.38,0.73-26.07c0.44,7.04-0.12,14.11,0.58,21.15c0.23-8.26,1.55-16.75-0.22-24.88
		c-0.46-6.42,0.41-12.86,0.67-19.28c0.46,5.74-0.26,11.52,0.6,17.23C885.89,186.92,886.72,178.51,885.34,170.33z"/>
	<path fill="#002060" d="M1042.01,173.97c0.49-3.08,2.76-5.72,5.72-6.7c2.35,0.66,4.88,1.63,6.0701,3.96
		c2.87,4.59,1.4299,10.25-0.5801,14.87c-2.08,4.71-2.21,9.91-3.0499,14.91c-1.2301,10.66-2.9501,21.27-3.76,31.98
		c-0.1901,2.45,2.3199,4.75,0.8199,7.15c-2.48,4.29-10.34,7.14-13.2,1.75c-2.5601-5.29-1.22-11.4-0.9401-17.04
		C1035.3199,207.77,1039.04,190.93,1042.01,173.97z"/>
	<path fill="#002060" d="M973.96,173.06c1.37-5.31,9.92-6.14,12.55-1.47c0.8,1.99,1.32,4.22,0.76,6.35
		c-2.96,15.73-6.01,31.45-9.03,47.16c-0.76,4.19-1.69,8.43-1.18,12.71c6.03-0.61,11.71-2.86,17.57-4.29
		c6.01-1.36,12.06-2.66,18.22-3.1c3.54-0.59,7.39-0.58,10.66,1.06c2.58,2.23,1.4399,6.36-1,8.22c-3.16,2.72-7.62,2.25-11.49,2.26
		c-12.05-0.61-23.33,4.42-34.92,6.89c-3.87,0.77-8.8,0.86-11.38-2.67c-2.2-3.42-0.77-7.57-0.39-11.27
		c3.08-16.27,5.88-32.6,8.07-49.01C973.08,181.64,972.55,177.2,973.96,173.06z"/>
	<path fill="#002060" d="M1079.96,173.97c11.0601-4.78,23.9401-6.65,35.4501-2.37c3.2999,1.59,6.52,4.55,6.88,8.39
		c-0.16,2.78-0.8501,5.68-2.42,8.02c-2.03,1.93-5.16,1.64-7.74,2.06c-0.05-2.02,0.05-4.06-0.29-6.05
		c-1.12-2.68-4.2999-3.38-6.87-3.67c-9.0499-0.56-18.64,1.12-26.0599,6.58c-1.76,1.48-3.92,3.42-3.61,5.95
		c1.11,3.74,4.23,6.5,7.5199,8.38c10.0701,4.61,21.76,5.45,30.9601,11.97c4.53,3.03,7.47,9.33,4.9,14.51
		c-2.42,5.52-7.26,9.47-12.29,12.54c-8.15,5.29-17.7001,8.05-27.28,9.22c-5.79,1.04-11.98-0.52-16.91-3.63
		c-3.7799-2.49-0.85-7.74,1.91-9.85c2.58-0.11,4.99,1.12,7.51,1.6c10.4401,1.89,21.14-1.53,29.88-7.2
		c2.5699-1.74,5.4399-3.95,5.66-7.32c-5.39-4.78-12.88-5.41-19.39-7.83c-7.53-2.37-15.3101-5.46-20.49-11.69
		c-3.76-4.91-5.99-12.2-2.53-17.85C1068.25,180.18,1074.11,176.62,1079.96,173.97z"/>
	<path fill="#002060" d="M1179.27,172.39c8.3099-1.59,17.08-3.51,25.37-0.9c2.26,1.4,3.97,4.45,3,7.11
		c-7.28,3.15-15.36,0.22-22.87,1.92l-0.52,1.03l-0.16,0.33c-4.01,0.41-8,1.22-11.77,2.6c-1.72,0.86-1.22,3.09-1.5499,4.64
		c-1.28,13.6-3.72,27.15-3.52,40.85c-0.08,4.64,2.38,9.73-0.3,14.03c-0.84,1.68-2.75,2.18-4.2899,2.91
		c-2.4-0.89-4.89-2.11-6.0601-4.52c-2.0699-4.12-1.6-8.88-2.15-13.33c0.54-14.12,2.75-28.12,4.39-42.15
		c-9.87,0.59-19.8199,3.5-29.6799,1.86c-4.66-0.55-4.66-7.87-0.52-9.18c5.5599-1.77,11.46-1.65,17.23-2.03
		C1157.05,176.21,1168.27,174.89,1179.27,172.39z"/>
	<path fill="#00044C" d="M885.34,170.33c1.3799,8.18,0.55,16.59,0.14,24.83c-0.86-5.71-0.14-11.49-0.6-17.23
		C884.7,175.35,883.82,172.72,885.34,170.33z"/>
	<path fill="#000248" d="M742.08,172.83c0.21-0.36,0.64-1.07,0.86-1.42c8.15,0.9,16.41,0.48,24.58-0.11c-0.19,0.3-0.59,0.9-0.78,1.2
		C758.59,173.5,750.28,172.91,742.08,172.83z"/>
	<path fill="#000247" d="M1184.77,180.52c7.51-1.7,15.59,1.23,22.87-1.92c-0.8101,1.82-2.63,3.03-4.63,2.86
		c-6.26,0.01-12.52-0.33-18.76,0.09L1184.77,180.52z"/>
	<path fill="#00054C" d="M884.21,197.21c1.77,8.13,0.45,16.62,0.22,24.88c-0.7-7.04-0.14-14.11-0.58-21.15
		C883.94,200.01,884.12,198.15,884.21,197.21z"/>
	<path fill="#00034C" d="M650.15,203.9c3.93,0.15,7.88-0.02,11.8199,0.01c4.4,0.18,8.8101-0.01,13.19,0.48
		c-8.24,0.98-16.61,0.76-24.8799,0.38L650.15,203.9z"/>
	<path fill="#000041" d="M883.12,227.01c1.25,1.85,1.26,4.11,0.05,5.99C882.34,231.24,882.38,228.79,883.12,227.01z"/>
	<path fill="#00B050" d="M325.76,315.77c1.43-1.1,3.31-0.57,4.97-0.7c1.74,2.59,3.81,5.28,3.22,8.61
		c-6.86,4.91-13.54,10.08-19.75,15.79c-5.26,4.66-10.17,9.67-15.13,14.64c-21.06,22.66-39.59,48.39-50.37,77.58
		c-4.52,2.88-8.97,5.86-13.05,9.34c-1.56,0.03-3.13,0.06-4.68,0.09c-1.95-7.3-5.16-14.15-7.93-21.15
		c-3.28-7.43-6.4-15.11-11.51-21.51c-2.11-2.77-5.33-4.26-8.51-5.42c0.03-1.27,0.06-2.54,0.09-3.81c4.15-3.58,9.09-7.21,14.89-6.66
		c3.66-0.54,7.03,1.32,9.36,4.01c5.22,5.95,8.43,13.29,11.61,20.45c13.35-23.07,30.12-44.15,49.47-62.48
		c5.15-5.11,10.71-9.79,16.41-14.27C311.56,325.08,318.54,320.23,325.76,315.77z"/>
	<path fill="#002060" d="M174.5,325.22c3.06-1.01,6.33-1,9.51-1.36c32,0.02,64,0,96,0.01c5.45-0.12,11.06,0.07,16.21,2.01
		c-4.43-0.23-8.8-1.16-13.24-1.34c-32.35,0.02-64.71,0.02-97.06,0C182.1,324.69,178.34,325.76,174.5,325.22z"/>
	<path fill="#385D8A" d="M155.25,338.43c4.74-6.26,11.42-11.65,19.25-13.21c3.84,0.54,7.6-0.53,11.42-0.68
		c32.35,0.02,64.71,0.02,97.06,0c4.44,0.18,8.81,1.11,13.24,1.34c3.22,0.57,6.16,2.3,8.63,4.4c-5.7,4.48-11.26,9.16-16.41,14.27
		c-35.49,0.25-70.99-0.02-106.48,0.13c-5.6,0.09-9.87,4.56-12.41,9.14c-1.93,2.66-1.03,6.15-1.22,9.2c0.06,31,0.01,62,0.01,93
		c0.2,3.33-0.89,7.14,1.24,10.05c1.74,2.59,3.41,5.44,6.17,7.1c2.34,1.53,5.18,1.87,7.83,2.56c-0.38,0.27-1.16,0.79-1.54,1.06
		c23.31,0.32,46.64,0.05,69.96,0.13c11.99-0.08,23.98,0.18,35.96-0.16c-0.35-0.28-1.06-0.83-1.41-1.1
		c7.44-1.23,13.79-7.85,13.45-15.6c0.11-32.7-0.01-65.4,0.06-98.1c0.05-2.65-0.36-5.28-0.99-7.85c4.96-4.97,9.87-9.98,15.13-14.64
		c2.96,4.27,5.69,9.45,5.57,14.7c-0.38,1.25-0.62,2.53-0.72,3.84c0.14,30.66-0.02,61.32,0.07,91.98c0.27,5.24-0.8,10.63,0.66,15.76
		c0.28,4.04-1.88,7.94-3.57,11.55c-4.67,8.24-12.55,15.06-21.81,17.43c-3.82-0.46-7.56,0.65-11.36,0.67
		c-27.01-0.11-54.02,0-81.03-0.07c-7.49,0.22-15.01-0.52-22.45,0.47c-10.35-0.99-19.78-7.33-25.42-15.94
		c-4.01-5.44-5.43-12.26-6.05-18.84c0.05-32.67,0-65.34,0.02-98.01C147.76,354.36,149.86,345.36,155.25,338.43z"/>
	<path fill="#FFFFFF" d="M169.55,353.82c2.54-4.58,6.81-9.05,12.41-9.14c35.49-0.15,70.99,0.12,106.48-0.13
		c-19.35,18.33-36.12,39.41-49.47,62.48c-3.18-7.16-6.39-14.5-11.61-20.45c-2.33-2.69-5.7-4.55-9.36-4.01
		c-5.8-0.55-10.74,3.08-14.89,6.66c-0.03,1.27-0.06,2.54-0.09,3.81c3.18,1.16,6.4,2.65,8.51,5.42c5.11,6.4,8.23,14.08,11.51,21.51
		c2.77,7,5.98,13.85,7.93,21.15c1.55-0.03,3.12-0.06,4.68-0.09c4.08-3.48,8.53-6.46,13.05-9.34c10.78-29.19,29.31-54.92,50.37-77.58
		c0.63,2.57,1.04,5.2,0.99,7.85c-0.07,32.7,0.05,65.4-0.06,98.1c0.34,7.75-6.01,14.37-13.45,15.6
		c-34.31,0.33-68.65,0.18-102.97,0.07c-2.65-0.69-5.49-1.03-7.83-2.56c-2.76-1.66-4.43-4.51-6.17-7.1
		c-0.36-1.31-0.58-2.64-0.66-3.98c-0.01-32.37,0-64.74,0-97.11C168.97,361.26,168.54,357.46,169.55,353.82z"/>
	<path fill="#002060" d="M168.33,363.02c0.19-3.05-0.71-6.54,1.22-9.2c-1.01,3.64-0.58,7.44-0.63,11.16c0,32.37-0.01,64.74,0,97.11
		c0.08,1.34,0.3,2.67,0.66,3.98c-2.13-2.91-1.04-6.72-1.24-10.05C168.34,425.02,168.39,394.02,168.33,363.02z"/>
	<path fill="#123E74" d="M319.05,358.01c0.1-1.31,0.34-2.59,0.72-3.84c0.97,2.15,0.49,4.57,0.58,6.86c0,32.66-0.01,65.32,0,97.98
		c-0.08,2.25,0.37,4.61-0.57,6.74c-1.46-5.13-0.39-10.52-0.66-15.76C319.03,419.33,319.19,388.67,319.05,358.01z"/>
	<path fill="#133F74" d="M182.04,476.79c0.38-0.27,1.16-0.79,1.54-1.06c34.32,0.11,68.66,0.26,102.97-0.07
		c0.35,0.27,1.06,0.82,1.41,1.1c-11.98,0.34-23.97,0.08-35.96,0.16C228.68,476.84,205.35,477.11,182.04,476.79z"/>
	<path fill="#2966AE" d="M436.58,480.58c261.2,0.07,522.4,0.08,783.6001,0c-0.04,3.52-0.04,7.05,0.0099,10.58
		c-261.21-0.05-522.4099-0.04-783.6199-0.01C436.65,487.63,436.64,484.1,436.58,480.58 M437.92,481.97
		c-0.09,2.7-0.07,5.41,0.04,8.12c260.34-0.02,520.6901,0.08,781.03-0.06c0.16-2.69,0.1801-5.39,0.0601-8.07
		c-75.6901-0.11-151.39-0.04-227.0801-0.06C807.29,481.96,622.6,481.8,437.92,481.97z"/>
	<path fill="#4A7EBB" d="M437.92,481.97c184.68-0.17,369.37-0.01,554.0499-0.07c75.6901,0.02,151.39-0.05,227.0801,0.06
		c0.12,2.68,0.1,5.38-0.0601,8.07c-260.34,0.14-520.69,0.04-781.03,0.06C437.85,487.38,437.83,484.67,437.92,481.97z"/>
	<path fill="#002060" d="M283.04,495.4c3.8-0.02,7.54-1.13,11.36-0.67c-6.33,1.74-12.94,1.06-19.42,1.19
		c-31.81-0.08-63.62,0.14-95.42-0.12c7.44-0.99,14.96-0.25,22.45-0.47C229.02,495.4,256.03,495.29,283.04,495.4z"/>
	<path fill="#385D8A" d="M167.03,530.21c5.22-2.83,11.14-3.91,17.01-4.23c34,0.05,68.01,0,102.01,0.03
		c11.54,0.36,22.21,6.84,28.67,16.27c2.48,4.1899,5.14,8.97,5.06,13.91c-0.37,1.56-0.77,3.15-0.75,4.78
		c0.14,34.35,0.07,68.7,0.04,103.05c0.12,1.29,0.36,2.56,0.72,3.82c0.23,4.77-2.33,9.3199-4.57,13.44
		c-5.63,8.58-14.93,15.85-25.41,16.46c-1.58-0.43-3.18-0.83-4.82-0.77c-33.65,0.08-67.31-0.02-100.96,0.0601
		c-4.19,0.04-8.28-1.07-12.46-1.07c-7.32-2.1-13.26-7.77-17.5-13.93c-3.85-5.21-5.21-11.71-5.96-18c0-29.6801,0-59.36,0-89.04
		c0.26-6.3-0.64-12.7,0.68-18.91C150.2,545.14,157.67,535.69,167.03,530.21 M169.52,556.48l-0.98-0.23
		c-0.43,34.92-0.06,69.85-0.2,104.77c0.2,3.31-0.64,7.22,1.88,9.88l-0.05-1.31c1.78,2.27,3.46,4.8199,6.11,6.18
		c4.48,2.48,9.78,2.25,14.74,2.23c31,0,62.01,0,93.02-0.01c6.45,0.15,12.63-4.02,15.03-9.98c1.11-3.56,0.98-7.34,0.98-11.01
		c-0.04-31.68,0.03-63.35-0.03-95.03c0.1-7.27-5.55-14.53-13-15c-34.67,0-69.34,0.01-104.01-0.0099
		C176.95,546.56,171.89,551.28,169.52,556.48z"/>
	<path fill="#FFFFFF" d="M169.52,556.48c2.37-5.2,7.43-9.92,13.49-9.52c34.67,0.02,69.34,0.0099,104.01,0.0099
		c7.45,0.47,13.1,7.73,13,15c0.06,31.6801-0.01,63.35,0.03,95.03c0,3.67,0.13,7.45-0.98,11.01c-2.4,5.96-8.58,10.13-15.03,9.98
		C253.03,678,222.02,678,191.02,678c-4.96,0.02-10.26,0.25-14.74-2.23c-2.65-1.36-4.33-3.91-6.11-6.18
		c-1.76-3.65-1.21-7.75-1.26-11.65c0.01-29.3,0-58.59,0-87.89C169.1,565.53,168.38,560.9,169.52,556.48 M193.99,583.14
		c0.72,3.02,1.51,6.06,3.05,8.79c5.17,9.54,12.38,17.73,19.35,25.97c-4.73,6.08-9.49,12.22-15.31,17.3199
		c-5.7,5.13-13.15,9.33-21.09,7.67c3.56,5.36,8.08,11.44,15.01,12.13c4.41-0.39,8.2-2.96,11.55-5.66
		c7.24-6.09,13.06-13.61,18.79-21.07c7.78,8.38,15.53,17.18,25.6,22.89c5.38,3.13,12.67,4.81,18.14,0.98
		c4.33-3.48,6.26-8.92,9.12-13.5099c-6.13,1.3-12.76,1.29-18.56-1.34c-10.02-4.3-17.7-12.37-24.89-20.31
		c10.89-12.24,22.43-24.65,37.41-31.87c-2.35-2.94-4.42-6.61-8.27-7.74c-5.15-1.49-10.29,1.15-14.43,4
		c-9.54,6.78-16.86,16.07-24.06,25.16c-9.81-11.4-17.62-24.94-20.64-39.78C200.06,571.35,195.31,576.49,193.99,583.14z"/>
	<path fill="#002060" d="M168.54,556.25l0.98,0.23c-1.14,4.42-0.42,9.05-0.61,13.57c0,29.3,0.01,58.59,0,87.89
		c0.05,3.9-0.5,8,1.26,11.65l0.05,1.31c-2.52-2.66-1.68-6.57-1.88-9.88C168.48,626.1,168.11,591.17,168.54,556.25z"/>
	<path fill="#123E74" d="M319.03,560.97c-0.02-1.6299,0.38-3.22,0.75-4.78c0.9,2.13,0.5,4.5,0.58,6.76c-0.02,31-0.01,62-0.01,93
		c-0.28,3.95,0.62,8.06-0.56,11.89c-0.36-1.26-0.6-2.53-0.72-3.82C319.1,629.67,319.17,595.32,319.03,560.97z"/>
	<path fill="#FF0000" d="M193.99,583.14c1.32-6.65,6.07-11.79,10.77-16.37c3.02,14.84,10.83,28.38,20.64,39.78
		c7.2-9.09,14.52-18.38,24.06-25.16c4.14-2.85,9.28-5.49,14.43-4c3.85,1.13,5.92,4.8,8.27,7.74c-14.98,7.22-26.52,19.63-37.41,31.87
		c7.19,7.94,14.87,16.01,24.89,20.31c5.8,2.63,12.43,2.64,18.56,1.34c-2.86,4.59-4.79,10.03-9.12,13.5099
		c-5.47,3.83-12.76,2.15-18.14-0.98c-10.07-5.71-17.82-14.51-25.6-22.89c-5.73,7.46-11.55,14.98-18.79,21.07
		c-3.35,2.7-7.14,5.27-11.55,5.66c-6.93-0.69-11.45-6.77-15.01-12.13c7.94,1.66,15.39-2.54,21.09-7.67
		c5.82-5.1,10.58-11.24,15.31-17.3199c-6.97-8.2401-14.18-16.4301-19.35-25.97C195.5,589.2,194.71,586.16,193.99,583.14z"/>
	<path fill="#2B68AF" d="M436.57,682.89c261.21,0.03,522.42,0.04,783.6199,0c-0.0499,3.53-0.0499,7.06-0.0099,10.6
		c-261.2001-0.1-522.4-0.08-783.6001-0.02C436.64,689.94,436.64,686.41,436.57,682.89 M438.03,683.94c-0.1,2.7-0.12,5.4-0.06,8.1
		c260.34,0.05,520.6801,0.07,781.02,0c0.08-2.68,0.0701-5.36,0-8.03c-94.3199-0.25-188.65-0.01-282.97-0.1
		C770.02,683.94,604.03,683.88,438.03,683.94z"/>
	<path fill="#4A7EBB" d="M438.03,683.94c166-0.06,331.99,0,497.99-0.03c94.3199,0.09,188.65-0.15,282.97,0.1
		c0.0701,2.67,0.08,5.35,0,8.03c-260.34,0.07-520.68,0.05-781.02,0C437.91,689.34,437.93,686.64,438.03,683.94z"/>
	<path fill="#164175" d="M171.57,695.96c4.18,0,8.27,1.11,12.46,1.07c33.65-0.08,67.31,0.02,100.96-0.0601
		c1.64-0.06,3.24,0.34,4.82,0.77c-2.22,0.77-4.58,0.44-6.87,0.49c-32.32-0.01-64.65-0.01-96.97,0
		C181.1,698.37,176.03,698.08,171.57,695.96z"/>
	<path fill="#385D8A" d="M168.03,731.97c4.65-2.39,9.85-3.11,14.97-3.73c30,0,60.02,0,90.03,0c7.38,0.09,14.93-0.63,22.09,1.66
		c5.9,1.63,11.21,5.08,15.34,9.5699c-5.89,3.67-11.61,7.64-17.06,11.94c-1.51-0.73-3.01-1.46-4.53-2.15c0.3-0.26,0.9-0.77,1.2-1.03
		c-32.67-0.42-65.36-0.05-98.04-0.2c-4.74,0.06-9.55-0.4-14.2,0.7c0.55,0.13,1.65,0.39,2.2,0.53c-4.42,1.35-7.84,4.63-10.24,8.48
		c-0.28,0.29-0.83,0.87-1.1,1.16c-0.63,4.33-0.29,8.73-0.34,13.09c-0.06,30.99,0.05,61.99-0.04,92.98c0.09,2.13-0.29,4.65,1.48,6.26
		c3.11,5.46,8.79,9.24,15.22,8.89c32.34,0.23,64.68-0.01,97.02,0.11c4.59,0.04,9.67-0.7,13-4.17c3.41-3.02,5.05-7.57,4.96-12.05
		c0.17-33.76-0.08-67.53,0.12-101.28c5.47-4.78,11.06-9.44,16.88-13.79c1.41,2.94,3.05,6.15,2.82,9.47
		c-1.15,4.46-0.67,9.08-0.71,13.63c-0.02,28.67,0.02,57.33-0.02,86c0.03,4.16-0.43,8.41,0.72,12.4901
		c-0.52,7.84-5.15,15.16-10.85,20.46c-5.76,5.81-13.82,8.94-21.88,9.64c-30.68,0-61.36-0.01-92.04,0
		c-7.11-0.12-14.34,0.6-21.26-1.41c-12.33-3.74-22.39-14.54-24.81-27.25c-0.11-2.0099-0.54-3.96-0.84-5.93
		c-0.02-30.0099,0-60.0099-0.01-90.0099c0.09-7.4301-0.61-15.01,1.62-22.21C152.39,744.36,159.55,736.65,168.03,731.97z"/>
	<path fill="#00B050" d="M310.46,739.47c2.1-1.67,4.59-2.5099,7.28-2.22c1.98,2.47,3.87,5.3,3.31,8.65
		c-1.37,0.99-2.72,2.0099-4.06,3.04c-5.82,4.35-11.41,9.01-16.88,13.79c-14.12,12.75-26.66,27.19-37.81,42.6
		c-10.79,14.99-20.08,31.19-26.44,48.57c-4.53,2.88-9,5.88-13.1,9.37c-1.54,0-3.08,0.01-4.61,0.03c-1.57-5.65-3.81-11.06-6.05-16.46
		c-3.65-8.71-7.11-17.67-12.73-25.33c-2.12-3.09-5.41-4.99-8.91-6.13c-0.23-1.33-0.18-2.68-0.22-4c3.42-2.67,6.93-5.69,11.35-6.4
		c3.83-0.24,8.28-0.8,11.26,2.22c6.37,5.94,9.76,14.26,13.29,22.05c17.28-29.84,40.19-56.46,67.26-77.84
		C298.85,747.11,304.57,743.14,310.46,739.47z"/>
	<path fill="#194477" d="M177.83,748.73c4.65-1.1,9.46-0.64,14.2-0.7c32.68,0.15,65.37-0.22,98.04,0.2c-0.3,0.26-0.9,0.77-1.2,1.03
		c-21.62-0.45-43.27-0.06-64.91-0.19c-14.64,0.12-29.29-0.25-43.93,0.19C179.48,749.12,178.38,748.86,177.83,748.73z"/>
	<path fill="#FFFFFF" d="M180.03,749.26c14.64-0.44,29.29-0.07,43.93-0.19c21.64,0.13,43.29-0.26,64.91,0.19
		c1.52,0.69,3.02,1.42,4.53,2.15c-27.07,21.38-49.98,48-67.26,77.84c-3.53-7.79-6.92-16.11-13.29-22.05
		c-2.98-3.02-7.43-2.46-11.26-2.22c-4.42,0.71-7.93,3.73-11.35,6.4c0.04,1.32-0.01,2.67,0.22,4c3.5,1.14,6.79,3.04,8.91,6.13
		c5.62,7.66,9.08,16.62,12.73,25.33c2.24,5.4,4.48,10.81,6.05,16.46c1.53-0.02,3.07-0.03,4.61-0.03c4.1-3.49,8.57-6.49,13.1-9.37
		c6.36-17.38,15.65-33.58,26.44-48.57c11.15-15.41,23.69-29.85,37.81-42.6c-0.2,33.75,0.05,67.52-0.12,101.28
		c0.09,4.48-1.55,9.03-4.96,12.05c-3.33,3.47-8.41,4.21-13,4.17c-32.34-0.12-64.68,0.12-97.02-0.11
		c-6.43,0.35-12.11-3.43-15.22-8.89c-0.51-1.69-0.93-3.43-0.89-5.19c0.03-34.37,0.02-68.74,0-103.1c-0.04-1.79,0.38-3.52,0.89-5.2
		C172.19,753.89,175.61,750.61,180.03,749.26z"/>
	<path fill="#002060" d="M168.69,758.9c0.27-0.29,0.82-0.87,1.1-1.16c-0.51,1.68-0.93,3.41-0.89,5.2c0.02,34.36,0.03,68.73,0,103.1
		c-0.04,1.76,0.38,3.5,0.89,5.19c-1.77-1.61-1.39-4.13-1.48-6.26c0.09-30.99-0.02-61.99,0.04-92.98
		C168.4,767.63,168.06,763.23,168.69,758.9z"/>
	<path fill="#123E74" d="M319.1,772.04c0.04-4.55-0.44-9.17,0.71-13.63c0.87,2.44,0.47,5.06,0.54,7.6c0,32.32,0,64.64,0,96.97
		c-0.06,2.51,0.33,5.11-0.55,7.55c-1.15-4.08-0.69-8.33-0.72-12.4901C319.12,829.37,319.08,800.71,319.1,772.04z"/>
	<path fill="#4A7EBB" d="M436.55,885c261.22,0,522.43,0,783.65,0c-0.0199,3.65-0.01,7.3-0.0199,10.96
		c-112.41-0.25-224.8201-0.03-337.23-0.11c-123.64,0-247.28,0-370.93,0c-25.14,0.09-50.28-0.16-75.41,0.13
		C436.52,892.32,436.55,888.66,436.55,885z"/>
	<path fill="#385D8A" d="M161.55,938.65c4.94-4.06,11.15-7.47,17.63-7.4301c1.56,0.36,3.15,0.75,4.77,0.7401
		c31.35-0.14,62.7-0.01,94.06-0.06c3.61-0.04,7.32,0.42,10.83-0.7c2.08-0.64,4.11,0.44,6.09,0.93c8.48,2.25,15.53,8.31,20.27,15.54
		c-6.54,2.07-11.76,7-17.42,10.76c-3.06-5.03-8.91-7.59-14.67-7.4c-27.72-0.11-55.43-0.01-83.15-0.04
		c-6.62,0.08-13.29-0.36-19.86,0.67c-4.99,1.03-8.56,5.09-10.72,9.4901c-0.22-0.2401-0.66-0.72-0.88-0.96
		c-0.41,35.28,0.06,70.56-0.2,105.85c0.13,2.33-0.38,5.0399,1.3,6.99c2.21,3.25,4.56,6.8199,8.48,8.15c1.86,0.95,4.2,0.34,5.96,1.47
		c1.14,1.65,3.31,1.1,5.01,1.28c31.92-0.16,63.84,0.1799,95.75-0.15c0.28-0.3101,0.84-0.9301,1.11-1.24
		c3.83-0.92,7.82-2.12,10.3-5.42c3.05-3.26,3.9-7.8,3.81-12.11c0.04-30.63,0.02-61.26,0.01-91.89c6.09-5.36,12.34-10.55,18.92-15.31
		c1.31,0.59,1.19,2.15,0.87,3.32c-0.37,1.25-0.62,2.53-0.74,3.85c-0.01,34.36,0.08,68.73-0.03,103.1
		c0.02,1.5601,0.42,3.0901,0.75,4.63c-0.45,7.78-5.06,15.12-10.68,20.42c-5.82,5.89-13.96,9-22.09,9.83c-29.01-0.01-58.03,0-87.05,0
		c-7.99-0.2999-16.1,0.77-23.97-0.95c-10.65-2.22-19.6-10.03-24.44-19.63c-2.84-6.37-3.71-13.4301-3.46-20.34
		c-0.01-31.36,0.03-62.72-0.02-94.08C147.81,956.8,152.68,945.57,161.55,938.65z"/>
	<path fill="#123F74" d="M179.18,931.22c2.17-0.9399,4.57-0.48,6.86-0.56c32,0.01,63.99,0.01,95.99,0c2.27,0.07,4.64-0.36,6.81,0.54
		c-3.51,1.12-7.22,0.66-10.83,0.7c-31.36,0.05-62.71-0.08-94.06,0.06C182.33,931.97,180.74,931.58,179.18,931.22z"/>
	<path fill="#00B050" d="M297.78,958.43c5.66-3.76,10.88-8.69,17.42-10.76c0.71,0.02,2.11,0.04,2.82,0.06
		c1.69,2.53,3.59,5.19,3.05,8.43c-0.7,0.55-1.41,1.1-2.12,1.65c-6.58,4.76-12.83,9.95-18.92,15.31
		c-18.99,17.24-35.38,37.34-48.76,59.21c-6.08,10.02-11.14,20.63-15.42,31.53c-4.16,3.51-9.17,6.09-13.27,9.79
		c-1.46-0.01-2.91,0-4.36,0.02c-3.49-10.9801-8.01-21.62-12.96-32.01c-3.32-6.52-7.2-14.1901-15-15.98c0.22-1.5-0.53-3.42,0.75-4.54
		c4.1-3.65,9.28-6.78,14.99-6.18c3.76-0.31,6.97,2.19,9.24,4.93c4.73,5.8199,7.86,12.71,10.85,19.54
		C244.53,1008.21,268.65,980.13,297.78,958.43z"/>
	<path fill="#FFFFFF" d="M180.1,951.66c6.57-1.03,13.24-0.59,19.86-0.67c27.72,0.03,55.43-0.07,83.15,0.04
		c5.76-0.19,11.61,2.37,14.67,7.4c-29.13,21.7-53.25,49.78-71.69,81.0001c-2.99-6.8301-6.12-13.7201-10.85-19.54
		c-2.27-2.74-5.48-5.24-9.24-4.93c-5.71-0.6-10.89,2.53-14.99,6.18c-1.28,1.12-0.53,3.04-0.75,4.54c7.8,1.7899,11.68,9.46,15,15.98
		c4.95,10.39,9.47,21.0299,12.96,32.01c1.45-0.02,2.9-0.03,4.36-0.02c4.1-3.7001,9.11-6.28,13.27-9.79
		c4.28-10.9,9.34-21.51,15.42-31.53c13.38-21.8699,29.77-41.97,48.76-59.21c0.01,30.63,0.03,61.26-0.01,91.89
		c0.09,4.3099-0.76,8.85-3.81,12.11c-2.48,3.3-6.47,4.5-10.3,5.42c-33.95,0.23-67.92,0.01-101.87,0.11
		c-1.76-1.13-4.1-0.52-5.96-1.47c-3.92-1.3301-6.27-4.9-8.48-8.15c-1.09-3.92-0.62-8-0.69-12c0-31.67,0.02-63.34-0.02-95.01
		c-0.01-1.65,0.22-3.27,0.49-4.87C171.54,956.75,175.11,952.69,180.1,951.66z"/>
	<path fill="#002060" d="M168.5,960.19c0.22,0.24,0.66,0.72,0.88,0.96c-0.27,1.6-0.5,3.22-0.49,4.87
		c0.04,31.67,0.02,63.34,0.02,95.01c0.07,4-0.4,8.08,0.69,12c-1.68-1.9501-1.17-4.66-1.3-6.99
		C168.56,1030.75,168.09,995.47,168.5,960.19z"/>
	<path fill="#123E74" d="M319.08,964.98c0.12-1.32,0.37-2.6,0.74-3.85c0.86,2.17,0.46,4.56,0.53,6.85c0,32.68-0.01,65.35,0.01,98.03
		c-0.06,2.22,0.29,4.55-0.56,6.7c-0.33-1.5399-0.73-3.0699-0.75-4.63C319.16,1033.71,319.07,999.34,319.08,964.98z"/>
	<path fill="#133E74" d="M184.04,1082.65c33.95-0.1,67.92,0.12,101.87-0.11c-0.27,0.3099-0.83,0.9299-1.11,1.24
		c-31.91,0.33-63.83-0.01-95.75,0.15C187.35,1083.75,185.18,1084.3,184.04,1082.65z"/>
	<path fill="#4A7EBB" d="M436.69,1087.1899c113.1,0.3101,226.21,0.04,339.32,0.13c148.05-0.0599,296.09,0.13,444.13-0.09
		c0.08,3.5801,0.02,7.17,0.0699,10.77c-261.23,0-522.46-0.01-783.7,0.01C436.62,1094.4,436.41,1090.78,436.69,1087.1899z"/>
	<path fill="#002060" d="M174.43,1134.3101c7.35-2.15,15.08-1.14,22.62-1.3601c29,0,57.99-0.0199,86.99,0
		c4.11,0.2101,8.28,0.49,12.17,1.9701c-4.46-0.2101-8.84-1.0901-13.27-1.4501c-32.33-0.0399-64.66,0.05-96.99-0.0499
		C182.08,1133.41,178.32,1134.78,174.43,1134.3101z"/>
	<path fill="#385D8A" d="M152.92,1150.87c4.91-7.72,12.35-14.6899,21.51-16.5599c3.89,0.47,7.65-0.9,11.52-0.89
		c32.33,0.1,64.66,0.01,96.99,0.0499c4.43,0.36,8.81,1.24,13.27,1.4501c5.54,1.37,10.36,5.01,14.21,9.13
		c-5.86,3.6799-11.59,7.58-16.98,11.9099c-1.44-0.7-2.86-1.3999-4.26-2.12c-0.3-0.27-0.9-0.8099-1.2-1.08
		c-33.63-0.61-67.31-0.08-100.96-0.26c-2.5,0.08-5.3-0.4399-7.44,1.21c-4.32,1.8301-7.92,5-10.01,9.25
		c-0.75,1.2101-1.28,2.5601-1.22,4.04c0.01,34.6801,0,69.37,0,104.0601c-0.04,1.4099,0.34,2.84,1.19,4.0199
		c2.22,4.14,5.63,7.4801,10.05,9.2001c1.24,1.03,2.81,1.26,4.37,1.21c31.35,0.01,62.69-0.01,94.04,0c3.32-0.02,6.65,0.13,9.96-0.2
		c0.26-0.27,0.79-0.8,1.05-1.0701c4.97-1.83,9.28-5.85,10.5-11.12c0.8-4.64,0.47-9.38,0.53-14.0599
		c0.03-30.5701-0.06-61.14,0.04-91.7001c5.45-4.84,11.08-9.46,16.89-13.86c1.45,2.99,3.16,6.3301,2.82,9.73
		c-1.18,4.1801-0.63,8.55-0.7,12.8501c0.01,28.96-0.01,57.9299,0,86.8999c0.05,3.9501-0.47,8,0.68,11.86
		c0.28,4.25-2.01,8.3501-3.86,12.12c-4.45,7.39-11.34,13.7301-19.71,16.26c-4.11,0.13-8.13,1.02-12.22,1.3401
		c-32.97-0.04-65.94,0.0299-98.91-0.04c-4.43-0.34-8.8-1.21-13.23-1.46c-7.78-2.63-14.24-8.4501-18.55-15.3501
		c-3.51-5.21-4.5-11.5399-5.18-17.6299c0.01-30.3501,0-60.7001,0-91.04C147.88,1169.47,147.8,1159.3101,152.92,1150.87z"/>
	<path fill="#00B050" d="M310.42,1144.05c2.17-1.78,4.78-2.4601,7.56-2.0901c1.79,2.5701,3.76,5.36,2.95,8.7001
		c-1.36,0.88-2.68,1.8199-3.96,2.8199c-5.81,4.4-11.44,9.02-16.89,13.86c-12.81,11.48-24.24,24.4601-34.59,38.2001
		c-12.2,16.23-22.66,33.9099-29.7,53.01c-4.57,2.8199-9.03,5.86-13.13,9.34c-1.49-0.01-2.97,0-4.45,0.03
		c-3.33-10.61-7.73-20.86-12.41-30.9301c-3.47-6.89-7.33-15.0599-15.51-17.12c-0.03-1.27-0.05-2.51-0.08-3.75
		c4.95-4.9399,12-8.33,19.08-6.49c4.63,1.76,7.38,6.17,9.89,10.17c2.8,4.38,4.78,9.1899,6.92,13.8999
		c17.46-29.71,40.18-56.46,67.34-77.74C298.83,1151.63,304.56,1147.73,310.42,1144.05z"/>
	<path fill="#002060" d="M179.58,1153.71c2.14-1.6499,4.94-1.13,7.44-1.21c33.65,0.1801,67.33-0.35,100.96,0.26
		c0.3,0.27,0.9,0.8099,1.2,1.08c-8.98-1.46-18.1-0.5-27.14-0.77c-18.01,0-36.02,0-54.03,0
		C198.53,1153.1801,189.03,1152.67,179.58,1153.71z"/>
	<path fill="#FFFFFF" d="M179.58,1153.71c9.45-1.0399,18.95-0.5299,28.43-0.64c18.01,0,36.02,0,54.03,0
		c9.04,0.27,18.16-0.6899,27.14,0.77c1.4,0.7201,2.82,1.42,4.26,2.12c-27.16,21.28-49.88,48.03-67.34,77.74
		c-2.14-4.71-4.12-9.5199-6.92-13.8999c-2.51-4-5.26-8.41-9.89-10.17c-7.08-1.84-14.13,1.55-19.08,6.49
		c0.03,1.24,0.05,2.48,0.08,3.75c8.18,2.0601,12.04,10.23,15.51,17.12c4.68,10.0701,9.08,20.3201,12.41,30.9301
		c1.48-0.03,2.96-0.04,4.45-0.03c4.1-3.48,8.56-6.52,13.13-9.34c7.04-19.1001,17.5-36.78,29.7-53.01
		c10.35-13.74,21.78-26.7201,34.59-38.2001c-0.1,30.5601-0.01,61.13-0.04,91.7001c-0.06,4.6799,0.27,9.4199-0.53,14.0599
		c-1.22,5.27-5.53,9.29-10.5,11.12c-4.61,1.05-9.35,0.64-14.03,0.7001c-29.01,0.0199-58.02-0.02-87.03,0.0199
		c-2.8-0.0499-5.57-0.5-8.36-0.6599c-4.42-1.72-7.83-5.0601-10.05-9.2001c-0.99-3.63-0.58-7.4099-0.62-11.11
		c-0.01-29.99,0-59.98,0-89.97c0.05-3.6899-0.4-7.46,0.65-11.04C171.66,1158.71,175.26,1155.54,179.58,1153.71z"/>
	<path fill="#002060" d="M168.35,1167c-0.06-1.48,0.47-2.83,1.22-4.04c-1.05,3.5801-0.6,7.3501-0.65,11.04
		c0,29.99-0.01,59.98,0,89.97c0.04,3.7001-0.37,7.48,0.62,11.11c-0.85-1.1799-1.23-2.61-1.19-4.0199
		C168.35,1236.37,168.36,1201.6801,168.35,1167z"/>
	<path fill="#123E74" d="M319.09,1176.0601c0.07-4.3-0.48-8.67,0.7-12.8501c0.93,2.14,0.47,4.55,0.56,6.8301
		c-0.01,30.3099,0,60.62,0,90.9399c-0.31,4.59,0.66,9.36-0.58,13.84c-1.15-3.86-0.63-7.9099-0.68-11.86
		C319.08,1233.99,319.1,1205.02,319.09,1176.0601z"/>
	<path fill="#002060" d="M179.59,1284.28c2.79,0.1599,5.56,0.61,8.36,0.6599c29.01-0.0399,58.02,0,87.03-0.0199
		c4.68-0.0601,9.42,0.35,14.03-0.7001c-0.26,0.27-0.79,0.8-1.05,1.0701c-3.31,0.33-6.64,0.1799-9.96,0.2
		c-31.35-0.01-62.69,0.01-94.04,0C182.4,1285.54,180.83,1285.3101,179.59,1284.28z"/>
	<path fill="#2865AE" d="M436.57,1289.7c261.21,0.05,522.41,0.0701,783.61-0.01c-0.04,3.52-0.04,7.04,0,10.5801
		c-261.2001-0.0601-522.4-0.05-783.61-0.01C436.65,1296.73,436.65,1293.21,436.57,1289.7 M437.86,1290.97
		c-0.05,2.6801-0.03,5.37,0.08,8.0701c40.37,0.13,80.74,0.01,121.11,0.0699c220.01-0.0599,440.02,0.05,660.03-0.0699
		c0.0801-2.7001,0.0701-5.4-0.01-8.0801c-46.0299-0.1-92.0599-0.0299-138.09-0.0599C866.61,1290.96,652.24,1290.8101,437.86,1290.97
		z"/>
	<path fill="#4A7EBB" d="M437.86,1290.97c214.38-0.1599,428.75-0.01,643.12-0.0699c46.03,0.03,92.0601-0.04,138.09,0.0599
		c0.0801,2.6801,0.0901,5.38,0.01,8.0801c-220.0099,0.12-440.02,0.01-660.03,0.0699c-40.37-0.0599-80.74,0.0601-121.11-0.0699
		C437.83,1296.34,437.81,1293.65,437.86,1290.97z"/>
	<path fill="#002060" d="M171.84,1303.04c4.43,0.25,8.8,1.12,13.23,1.46c32.97,0.0699,65.94,0,98.91,0.04
		c4.09-0.3201,8.11-1.2101,12.22-1.3401c-3.59,1.25-7.39,1.76-11.18,1.8501c-32.32,0.01-64.63-0.02-96.95,0.01
		C182.61,1305.13,177.04,1304.8101,171.84,1303.04z"/>
	<path fill="#385D8A" d="M178.09,1335.66c3.89-1.02,7.92-0.53,11.88-0.62c27.66,0,55.33,0,83,0c7.68,0.09,15.6-0.6801,22.99,1.9399
		c8.43,2.5801,15.35,8.86,19.92,16.27c1.76,3.77,4.1,7.78,3.92,12.03c-1.16,4.1699-0.63,8.52-0.7,12.7899
		c-0.06,29.3101,0.02,58.63-0.01,87.9501c0.05,3.62-0.41,7.34,0.74,10.86c-0.56,10.1801-7.58,19.21-15.76,24.91
		c-4.32,2.5-9.18,5.0699-14.24,5.0499c-3.5-1.21-7.23-0.72-10.86-0.75c-29.66-0.02-59.33,0.04-89,0
		c-3.61,0.01-7.3-0.4199-10.82,0.67c-4.03,0.3199-7.98-1.54-11.56-3.26c-10.3-5.54-18.24-16.17-19.01-28.02
		c-0.88-3.4399-0.33-7-0.47-10.48c0-29.99,0-59.98,0.01-89.96c-0.33-8.78,1.41-18.14,7.07-25.13
		C160.62,1342.5,168.87,1336.88,178.09,1335.66 M239.51,1350.38c-3.57,0.9399-6.74,2.92-9.84,4.88c-1.32-1.79-3.82-1.04-5.7-1.23
		c-13.34,0.3199-26.7-0.4501-40.01,0.35c0.39,0.26,1.17,0.79,1.56,1.0599c-1.97,0.5601-4.05,0.4801-6.05,0.88
		c-4.5,1.37-7.99,4.9901-9.93,9.2001l-1.01-0.3201c-0.39,10.28-0.12,20.5701-0.17,30.8601c0.13,27.2899-0.28,54.58,0.24,81.86
		c0.19-0.29,0.57-0.86,0.77-1.14c1.78,3.33,3.98,6.8099,7.57,8.4299c3.08,1.63,6.67,1.5,10.05,1.79
		c32.01,0.01,64.02-0.01,96.03,0.02c4.74,0.04,9.79-1.3,12.92-5.09c4.51-4.4301,4.17-11.13,4.1-16.9401
		c0-30.98-0.01-61.96,0.01-92.9299c0.03-5.01-1.76-10.3-6.07-13.1801c-2.73-2.39-6.33-2.88-9.76-3.45l1-1.13
		c-3.05-0.29-6.11-0.3601-9.16-0.29c-1.48,0.1899-3.54-0.38-4.45,1.1899c-3.82-3.21-8.56-5.6499-13.65-5.62
		C251.81,1349.6899,245.57,1349.1,239.51,1350.38z"/>
	<path fill="#FF0000" d="M239.51,1350.38c6.06-1.28,12.3-0.6901,18.45-0.8c5.09-0.0299,9.83,2.41,13.65,5.62
		c5.59,3.37,8.85,9.49,9.62,15.8601c0.38,8.84,0.78,18.2699-3.94,26.1599c-4.38,7.78-12.56,12.41-20.75,15.25
		c-5.78,1.89-11.38,4.41-17.33,5.76c-1.24,4.73-2.48,9.46-3.63,14.22c-0.73,3.27-3.51,5.9401-6.77,6.66
		c-2.56,0.5601-5.2,0.3101-7.79,0.38c-3.81-5.38-3.74-12.73-1.09-18.58c1.68-3.88,3.13-7.9301,5.52-11.4301
		c9.31-8,21.74-10.3199,32.59-15.48c5.41-3.61,6.88-11.11,5.24-17.1c-1.03-3.09-1.02-7.38-4.39-8.9401
		c-3.9-2.3099-8.59-2-12.95-1.88c-5.03,0.11-10.25,3.28-11.54,8.3401c-3.25,5.6699-11.61,5.6599-16.93,3.24
		c-1.78-2.37-2.01-5.5701-1.1-8.3101c2.83-5.9299,7.77-10.6799,13.3-14.09C232.77,1353.3,235.94,1351.3199,239.51,1350.38z"/>
	<path fill="#133F75" d="M183.96,1354.38c13.31-0.8,26.67-0.03,40.01-0.35c1.88,0.1899,4.38-0.5601,5.7,1.23
		c-14.71,0.27-29.43-0.0701-44.15,0.1799C185.13,1355.17,184.35,1354.64,183.96,1354.38z"/>
	<path fill="#124075" d="M271.61,1355.2c0.91-1.5699,2.97-1,4.45-1.1899c3.05-0.0701,6.11,0,9.16,0.29l-1,1.13
		C280.02,1355.25,275.81,1355.47,271.61,1355.2z"/>
	<path fill="#FFFFFF" d="M185.52,1355.4399c14.72-0.25,29.44,0.0901,44.15-0.1799c-5.53,3.41-10.47,8.16-13.3,14.09
		c-0.91,2.74-0.68,5.9401,1.1,8.3101c5.32,2.4199,13.68,2.4299,16.93-3.24c1.29-5.0601,6.51-8.2301,11.54-8.3401
		c4.36-0.12,9.05-0.4299,12.95,1.88c3.37,1.5601,3.36,5.8501,4.39,8.9401c1.64,5.99,0.17,13.49-5.24,17.1
		c-10.85,5.16-23.28,7.48-32.59,15.48c-2.39,3.5-3.84,7.55-5.52,11.4301c-2.65,5.85-2.72,13.2,1.09,18.58
		c2.59-0.0699,5.23,0.1801,7.79-0.38c3.26-0.72,6.04-3.39,6.77-6.66c1.15-4.76,2.39-9.49,3.63-14.22
		c5.95-1.35,11.55-3.87,17.33-5.76c8.19-2.84,16.37-7.47,20.75-15.25c4.72-7.89,4.32-17.3199,3.94-26.1599
		c-0.77-6.3701-4.03-12.4901-9.62-15.8601c4.2,0.27,8.41,0.05,12.61,0.2301c3.43,0.5699,7.03,1.0599,9.76,3.45
		c4.31,2.88,6.1,8.17,6.07,13.1801c-0.02,30.97-0.01,61.95-0.01,92.9299c0.07,5.8101,0.41,12.51-4.1,16.9401
		c-3.13,3.7899-8.18,5.13-12.92,5.09c-32.01-0.03-64.02-0.01-96.03-0.02c-3.38-0.29-6.97-0.16-10.05-1.79
		c-3.59-1.62-5.79-5.1-7.57-8.4299c-1.02-9.22-0.17-18.55-0.45-27.8101c-0.01-24.6699,0-49.34-0.01-74
		c0.03-3.1599-0.31-6.4,0.63-9.45c1.94-4.21,5.43-7.8301,9.93-9.2001C181.47,1355.92,183.55,1356,185.52,1355.4399 M209.86,1457.8
		c-2.49,2.36-2.14,5.98-0.96,8.8999c2.15,2.91,5.3,5.3,9.07,5.3401c6.9,0.6899,13.92-2.98,17.43-8.9501
		c-0.04-1.6899-0.04-3.36,0.01-5.01c-1.16-1.61-2.42-3.49-4.57-3.7c-4.15-0.37-7.55-4.41-11.89-2.99
		C215.54,1452.9,212.72,1455.46,209.86,1457.8z"/>
	<path fill="#002060" d="M168.53,1365.2l1.01,0.3201c-0.94,3.0499-0.6,6.29-0.63,9.45c0.01,24.66,0,49.3301,0.01,74
		c0.28,9.26-0.57,18.5901,0.45,27.8101c-0.2,0.28-0.58,0.85-0.77,1.14c-0.52-27.28-0.11-54.5701-0.24-81.86
		C168.41,1385.77,168.14,1375.48,168.53,1365.2z"/>
	<path fill="#123E74" d="M319.1,1378.0699c0.07-4.2699-0.46-8.62,0.7-12.7899c0.85,2.13,0.5,4.48,0.56,6.73
		c-0.02,30.67-0.01,61.34-0.01,92.01c-0.26,4.27,0.58,8.6799-0.52,12.86c-1.15-3.52-0.69-7.24-0.74-10.86
		C319.12,1436.7,319.04,1407.38,319.1,1378.0699z"/>
	<path fill="#FF0000" d="M209.86,1457.8c2.86-2.3401,5.68-4.9,9.09-6.41c4.34-1.42,7.74,2.62,11.89,2.99
		c2.15,0.21,3.41,2.09,4.57,3.7c-0.05,1.65-0.05,3.3201-0.01,5.01c-3.51,5.9701-10.53,9.64-17.43,8.9501
		c-3.77-0.04-6.92-2.4301-9.07-5.3401C207.72,1463.78,207.37,1460.16,209.86,1457.8z"/>
	<path fill="#CDCDCD" d="M1366.87,1491.75c9.75-2.66,19.5601-5.0699,29.41-7.3199c0.14,0.47,0.4199,1.3999,0.5599,1.87
		c-107.63,107.87-215.39,215.62-323.11,323.3999c-13.27,13.13-26.25,26.5601-39.71,39.4801c-0.41-1.4901-0.9401-3.02-0.42-4.53
		c10.41-41.3101,20.67-82.66,31.02-123.99c1.38-6.49,3.72-12.8,4.52-19.39l-1.04-0.92c2-8.53,4.1-17.03,6.3201-25.5
		c0.2899,0.62,0.86,1.86,1.1499,2.49c2.3601-9.84,5.0701-19.59,7.3501-29.4399c0.3199-1.35,0.0599-2.5801-0.76-3.7001
		c2.59-11.1599,5.37-22.2899,8.3099-33.37c0.17,0.65,0.51,1.9301,0.6801,2.5801c2.8099-7.78,4.2999-15.98,6.4199-23.9701
		c0.12-1.6699,1.4501-4.0499-0.5199-5.09c0.4199-1.86,0.9199-3.6799,1.4299-5.5c0.16,0.65,0.49,1.9501,0.66,2.59
		c2.83-7.12,3.62-14.9199,6.1799-22.1c2.6901-1.4,5.79-1.64,8.7001-2.4c51.9399-13.0399,103.85-26.2,155.84-39.0499
		c1.6801-0.38,3.27-1.05,4.77-1.9c-0.71-0.09-2.15-0.25-2.86-0.34c1.83-0.49,3.6699-0.9401,5.54-1.35
		c1.7999,1.47,4.08,0.59,6.1,0.1799c18.58-4.73,37.2-9.26,55.77-14.03c1.1799-0.3899,2.3199-0.88,3.4299-1.49
		c-0.7-0.11-2.1-0.34-2.7999-0.46c1.7999-0.49,3.61-0.96,5.45-1.36c2.5,2.09,5.78,0.15,8.5699-0.27
		c5.54-1.74,11.4701-2.34,16.7101-4.91C1369.63,1491.9,1367.79,1491.8,1366.87,1491.75z"/>
	<path fill="#4A7EBB" d="M436.51,1491.97c261.24,0.02,522.47,0.04,783.71-0.01c-0.0699,3.5801,0.02,7.17-0.09,10.77
		c-111.05-0.22-222.1-0.03-333.15-0.09c-116.31,0-232.62,0-348.94,0c-33.77,0.08-67.56-0.1801-101.33,0.13
		C436.37,1499.17,436.65,1495.5601,436.51,1491.97z"/>
	<path fill="#BCBCBC" d="M1345.26,1497.14c7.21-1.76,14.42-3.5701,21.61-5.39c0.92,0.05,2.76,0.15,3.67,0.21
		c-5.24,2.5701-11.17,3.17-16.7101,4.91C1351.04,1497.29,1347.76,1499.23,1345.26,1497.14z"/>
	<path fill="#BDBDBD" d="M1277.3101,1514.3c20.85-5.2001,41.6899-10.4401,62.5-15.8c0.7,0.12,2.1,0.35,2.7999,0.46
		c-1.11,0.61-2.25,1.1001-3.4299,1.49c-18.5701,4.77-37.1901,9.3-55.77,14.03C1281.39,1514.89,1279.11,1515.77,1277.3101,1514.3z"/>
	<path fill="#123F74" d="M179.15,1506.76c3.52-1.09,7.21-0.66,10.82-0.67c29.67,0.04,59.34-0.02,89,0
		c3.63,0.03,7.36-0.46,10.86,0.75c-6.2,1.0801-12.61,0.2001-18.89,0.49c-28.32,0-56.64-0.01-84.96,0
		C183.71,1507.23,181.31,1507.6899,179.15,1506.76z"/>
	<path fill="#BDBDBD" d="M1109.33,1556.25c54.17-13.4399,108.3-27.05,162.4401-40.6c0.71,0.09,2.15,0.25,2.86,0.34
		c-1.5,0.85-3.09,1.52-4.77,1.9c-51.99,12.85-103.9,26.01-155.84,39.0499c-2.91,0.76-6.01,1-8.7001,2.4
		c-2.5599,7.1801-3.35,14.98-6.1799,22.1c-0.17-0.6399-0.5-1.9399-0.66-2.59c1.74-6.52,3.1801-13.12,4.9501-19.62
		C1104.04,1556.62,1107.3199,1557.01,1109.33,1556.25z"/>
	<path fill="#BEBEBE" d="M1097.05,1584.35c1.97,1.04,0.6399,3.42,0.5199,5.09c-2.12,7.9901-3.61,16.1901-6.4199,23.9701
		c-0.17-0.65-0.51-1.9301-0.6801-2.5801C1092.74,1602.02,1094.9301,1593.1899,1097.05,1584.35z"/>
	<path fill="#BEBEBE" d="M1082.16,1644.2c0.8199,1.12,1.08,2.3501,0.76,3.7001c-2.28,9.85-4.99,19.6-7.3501,29.4399
		c-0.2899-0.63-0.86-1.87-1.1499-2.49C1077.17,1664.67,1079.52,1654.4,1082.16,1644.2z"/>
</g>
</svg>
