<?xml version="1.0"?>
<svg xmlns:rdf="http://www.w3.org/1999/02/22-rdf-syntax-ns#" xmlns="http://www.w3.org/2000/svg" xmlns:cc="http://web.resource.org/cc/" xmlns:xlink="http://www.w3.org/1999/xlink" xmlns:dc="http://purl.org/dc/elements/1.1/" xmlns:svg="http://www.w3.org/2000/svg" id="svg1872" viewBox="0 0 600 600" version="1.0">
  <defs id="defs1874">
    <linearGradient id="linearGradient8397" y2="560.27" gradientUnits="userSpaceOnUse" x2="300.06" y1="89.367" x1="308.24">
      <stop id="stop8391" stop-color="#75b93c" offset="0"/>
      <stop id="stop8393" stop-color="#fff" stop-opacity="0" offset="1"/>
    </linearGradient>
  </defs>
  <g id="layer1" stroke-width="6" stroke-linecap="round">
    <path id="path1880" stroke-linejoin="bevel" d="m531.31 324.16c8 163.47-194.13 291.06-336.72 205.93-114.24-58.87-166.21-219.58-90.18-328.18 62.89-103.75 212.04-144.23 314.88-75.53 67.81 40.81 115.39 117.45 112.02 197.78z" stroke="#0e0707" fill="url(#linearGradient8397)"/>
    <g id="g4546" stroke="#000" transform="matrix(1 0 0 .60748 5.0429 231.56)" fill="none">
      <path id="path2768" d="m187.63 487.2c10.8-61.94-33.91-155.56 49.91-180.82 64.57-29.23 180.3-4.8 169.37 84.12 0.13 34.02-3.51 52.13 1.36 86.09"/>
      <path id="path3655" d="m297.52 301.16v229.07"/>
      <path id="path3657" d="m236.75 306.89v213.3"/>
      <path id="path3659" d="m356.75 308.89v205.35"/>
    </g>
    <path id="path4560" d="m193.31 259.07c-53.04-3.45 29.71-67.46 35.62-6.85 17.13 77.71-114.85 62.21-88.26-11.91 22.49-86.05 156.43-28.77 118.22 48-32.39 95.78-181.93 36.98-148.83-56.4 9.92-60.88 89.04-84.93 137.57-53.93" stroke="#000" fill="none"/>
    <path id="path4562" d="m411.94 260.28c-53.04-3.45 29.71-67.46 35.62-6.86 17.13 77.72-114.85 62.22-88.26-11.9 22.49-86.05 156.44-28.78 118.22 48-32.39 95.78-181.93 36.98-148.83-56.4 9.92-60.88 89.05-84.93 137.58-53.94" stroke="#000" fill="none"/>
    <path id="path5455" d="m152.03 144.18c-31.08-32.92-86.461-40.87-97.431-87.304l-6.497-0.092-5.99 2.842" stroke="#000" fill="none"/>
    <path id="path5457" d="m443.14 140.56c18.53-38.59 137.71-18.62 79.72-88.181" stroke="#000" fill="none"/>
    <path id="path5459" d="m317.51 92.24c-17.6-11.899 2.87-31.796 1.21-47.108" stroke="#000" fill="none"/>
    <path id="path5461" d="m377.91 104.73c0.88-33.903 51.64-17.32 57.98-47.519" stroke="#000" fill="none"/>
    <path id="path5463" d="m231.75 103.11c-30.22-9.422-30.65-66.362-70.06-54.355" stroke="#000" fill="none"/>
    <path id="path5465" d="m484.21 181.63c27.1-24.53 87.44 3.16 95.42-44.7" stroke="#000" fill="none"/>
    <path id="path5467" d="m109.75 188.87c-18.64-48.35-92.34 50.7-89.381-21.74" stroke="#000" fill="none"/>
  </g>
  <metadata>
    <rdf:RDF>
      <cc:Work>
        <dc:format>image/svg+xml</dc:format>
        <dc:type rdf:resource="http://purl.org/dc/dcmitype/StillImage"/>
        <cc:license rdf:resource="http://creativecommons.org/licenses/publicdomain/"/>
        <dc:publisher>
          <cc:Agent rdf:about="http://openclipart.org/">
            <dc:title>Openclipart</dc:title>
          </cc:Agent>
        </dc:publisher>
        <dc:title>Sickness</dc:title>
        <dc:date>2006-11-18T16:03:11</dc:date>
        <dc:description>Ever feel like this...?</dc:description>
        <dc:source>http://openclipart.org/detail/1521/sickness-by-platypuscove</dc:source>
        <dc:creator>
          <cc:Agent>
            <dc:title>Platypuscove</dc:title>
          </cc:Agent>
        </dc:creator>
        <dc:subject>
          <rdf:Bag>
            <rdf:li>cartoon</rdf:li>
            <rdf:li>clip art</rdf:li>
            <rdf:li>clipart</rdf:li>
            <rdf:li>green</rdf:li>
            <rdf:li>icon</rdf:li>
            <rdf:li>image</rdf:li>
            <rdf:li>line art</rdf:li>
            <rdf:li>man</rdf:li>
            <rdf:li>media</rdf:li>
            <rdf:li>medical</rdf:li>
            <rdf:li>people</rdf:li>
            <rdf:li>png</rdf:li>
            <rdf:li>public domain</rdf:li>
            <rdf:li>sign</rdf:li>
            <rdf:li>svg</rdf:li>
          </rdf:Bag>
        </dc:subject>
      </cc:Work>
      <cc:License rdf:about="http://creativecommons.org/licenses/publicdomain/">
        <cc:permits rdf:resource="http://creativecommons.org/ns#Reproduction"/>
        <cc:permits rdf:resource="http://creativecommons.org/ns#Distribution"/>
        <cc:permits rdf:resource="http://creativecommons.org/ns#DerivativeWorks"/>
      </cc:License>
    </rdf:RDF>
  </metadata>
</svg>
